<svg width="20.785" height="24" version="1.1" viewBox="0 0 20.785 24" xmlns="http://www.w3.org/2000/svg">
  <g transform="translate(.00013606 -320.07)" fill="#fff">
    <path transform="translate(0 320.07)" d="m10.393 0-10.393 6 10.393 6 10.393-6zm-3.4648 4 3.4648 2 3.4629-2 3.4648 2-6.9277 4-6.9277-4z"/>
    <path d="m5.3784e-7 338.07 10.392 6.0002-1.37e-4 -12-10.392-6.0002zm5.1965 1.0006-3.71e-4 -4.0006-3.4635-1.999-3.707e-4 -4.0006 6.928 3.9996-2.34e-4 7.9996z"/>
    <path d="m20.785 338.07 1.4e-4 -12-10.392 6.0002-1.4e-4 12zm-1.7317-5.0006-3.4645 2.0006 6.07e-4 3.999-3.4645 2.0006-2.37e-4 -7.9996 6.928-3.9996z"/>
  </g>
</svg>
