<svg width="68.269mm" height="28.06mm" version="1.1" viewBox="0 0 68.269 28.06" xmlns="http://www.w3.org/2000/svg">
  <g transform="translate(-11.114 -10.637)" fill="#4d3df7">
    <g transform="rotate(7.1558)" stroke-width="1.6269" aria-label="Convert a project!">
      <path d="m17.688 14.084q0.322 0 0.322 0.31352 0 0.38979-0.93634 0.96176-0.9321 0.56773-1.8049 0.56773-0.7711 0-1.4193-0.50418-0.64823-0.50418-0.64823-1.4702 0-0.98294 0.67789-2.182 0.67789-1.199 1.6778-1.9532 1.0041-0.75415 1.9574-0.75415 0.56773 0 0.90668 0.33895 0.33894 0.33895 0.33894 0.79228 0 0.49147-0.07626 0.70755-0.07626 0.21184-0.32624 0.36437-0.24997 0.15253-0.40673 0.15253-0.161 0-0.27963-0.1144-0.11863-0.11439-0.11863-0.30929 0-0.13558 0.07203-0.39402 0.06779-0.25845 0.06779-0.43216 0-0.29234-0.19913-0.29234-0.6101 0-1.3685 0.65247-0.75839 0.65247-1.3007 1.6227-0.53808 0.966-0.53808 1.7074 0 0.49147 0.28387 0.83042 0.28387 0.33894 0.83042 0.33894 0.322 0 0.80923-0.17371 0.49147-0.17371 0.90668-0.47029 0.41944-0.30081 0.57197-0.30081z"/>
      <path d="m23.14 13.406q-0.28387 0.99142-1.0804 1.6735-0.79228 0.67789-1.5846 0.67789-0.62705 0-1.0338-0.45758-0.40674-0.46181-0.40674-1.1312 0-1.0931 0.74568-2.1523 0.74568-1.0592 1.8091-1.0592 0.7245 0 1.1736 0.53808 0.4491 0.53384 0.4491 1.2753 0 0.322-0.07203 0.63129zm-2.2031-1.3388q-0.29658 0.26268-0.58044 0.83889-0.28387 0.57621-0.28387 1.1567 0 0.35166 0.1271 0.58044 0.13134 0.22879 0.34318 0.22879 0.52537 0 1.0931-0.62281 0.56773-0.62281 0.56773-1.3982 0-0.43639-0.18642-0.71602-0.18218-0.28387-0.51266-0.28387-0.31352 0-0.5635 0.21608z"/>
      <path d="m27.593 14.935q-0.20337-0.38131-0.29658-1.4236-0.09321-1.0846-0.41521-1.0846-0.30505 0-1.055 1.1312-0.74992 1.127-0.92363 1.6651-0.03813 0.161-0.14405 0.26692-0.10168 0.10592-0.20337 0.10592-0.644 0-0.644-0.58892 0-0.19913 0.1271-0.90668 0.16524-0.91515 0.16524-2.237 0-0.19913 0.17371-0.42368 0.17371-0.22879 0.3686-0.22879 0.24574 0 0.37708 0.12287 0.13134 0.12287 0.13134 0.65247 0 0.4025-0.2415 1.5591 0.91939-2.1523 2.0506-2.1523 0.98294 0 1.1524 1.5464 0.16947 1.5761 0.38979 1.5761 0.09745 0 0.22455-0.04237 0.15252-0.05084 0.2415-0.05084 0.20337 0 0.20337 0.23726 0 0.21608-0.27963 0.46181-0.27963 0.2415-0.70331 0.2415-0.49147 0-0.70331-0.42792z"/>
      <path d="m30.559 15.512q0.0042-0.27963-0.33471-1.2033-0.68213-1.8261-0.68213-2.6014 0-0.69484 0.54655-0.69484 0.53384 0 0.53384 0.63552 0 0.40673 0.01695 0.58044 0.02118 0.16947 0.13134 0.62281 0.11439 0.4491 0.22455 0.74992 0.06355 0.18218 0.15252 0.47452 0.05084 0.18218 0.08897 0.25421 0.02542-0.03813 0.17795-0.33047 0.08897-0.17795 0.60163-1.0084 0.51266-0.83465 0.8982-1.3304 0.38979-0.49571 0.58044-0.60586t0.4025-0.11016q0.22031 0 0.36013 0.14405 0.14405 0.14405 0.14405 0.35166 0 0.24574-0.35589 0.483-0.34742 0.23726-0.94905 1.0846-0.59739 0.84736-1.288 2.1311-0.38979 0.73297-0.69908 0.73297-0.26692 0-0.55079-0.36013z"/>
      <path d="m38.3 14.097q0 0.44063-0.74144 1.055-0.74144 0.6101-1.6735 0.6101-0.71602 0-1.127-0.4491-0.41097-0.45334-0.41097-1.2583 0-1.1863 0.83889-2.2243 0.83889-1.038 1.7922-1.038 0.47452 0 0.76263 0.30081 0.2881 0.30081 0.2881 0.71602 0 0.73721-0.70755 1.4066-0.70755 0.66518-1.8134 0.91939-0.1271 0.02966-0.1271 0.15252 0 0.20337 0.17795 0.38979 0.18218 0.18218 0.483 0.18218 0.8516 0 1.6905-0.87702 0.161-0.16947 0.31352-0.16947 0.25421 0 0.25421 0.28387zm-2.8429-0.74992q0.66942-0.13558 1.1778-0.57197 0.51266-0.43639 0.51266-0.79228 0-0.13982-0.0805-0.23302-0.07626-0.09745-0.19913-0.09745-0.3686 0-0.81771 0.54231-0.4491 0.54231-0.59315 1.1524z"/>
      <path d="m40.058 13.453 0.07203-0.13558q0.51266-1.0295 1.1016-1.6693 0.59316-0.644 1.1567-0.644 0.43216 0 0.70331 0.23726 0.27539 0.23726 0.27539 0.5635 0 0.20337-0.09321 0.35166-0.09321 0.14405-0.25845 0.14405-0.26268 0-0.47876-0.21608-0.15252-0.13982-0.2415-0.13982-0.31776 0-1.0634 0.98718-0.74568 0.98718-0.8982 2.2201-0.0466 0.35589-0.2076 0.49571-0.161 0.14405-0.43639 0.14405-0.29234 0-0.41521-0.33047-0.12287-0.33471-0.12287-1.0889 0-0.30929 0.01695-0.83465 0.01695-0.49571 0.09745-1.2117 0.02118-0.18642 0.02966-0.29234 0.03813-0.41521 0.08474-0.56773 0.05084-0.15676 0.22879-0.29234 0.17795-0.13558 0.39402-0.13558 0.22879 0 0.34742 0.13134 0.11863 0.13134 0.11863 0.2881 0 0.19913-0.19066 0.82618-0.06779 0.21608-0.11439 0.51689z"/>
      <path d="m45.523 12.114q-0.03813 0-0.2415 0.94481-0.19913 0.94481-0.19913 1.1439 0 0.34742 0.07203 0.48723 0.07626 0.13558 0.24574 0.13558 0.23726 0 0.45334-0.0805 0.22031-0.08474 0.57621-0.37284 0.22031-0.18218 0.37284-0.18218 0.12287 0 0.19489 0.07203 0.07626 0.06779 0.07626 0.161 0 0.37284-0.60163 0.84736-0.60163 0.47029-1.271 0.47029-0.55926 0-0.85584-0.33047-0.29234-0.33047-0.29234-0.94905 0-0.57197 0.42792-2.2836-0.27116 0.02966-0.37708 0.02966h-0.08897q-0.19489 0-0.39826-0.1271-0.19913-0.1271-0.19913-0.40673 0-0.35589 0.4025-0.35589l0.90668-0.0339q0.17795-0.51266 0.37708-1.3431 0.11863-0.51689 0.53808-0.51689 0.23302 0 0.36437 0.14405 0.13134 0.13982 0.13134 0.31352 0 0.067789-0.36013 1.3092 1.3473-0.11863 1.4786-0.11863 0.22455 0 0.29658 0.06779 0.07203 0.06355 0.07203 0.24997 0 0.37708-0.63976 0.47876z"/>
      <path d="m54.222 14.135q-1.1143 1.4702-2.1523 1.4702-0.38131 0-0.65671-0.30081-0.27539-0.30082-0.27539-0.76686 0-1.1228 0.99989-2.3896 0.99989-1.271 2.0167-1.271 0.51689 0 0.67789 0.52113 0.48723 0 0.48723 0.37284 0 0.17795-0.09321 0.644-0.16947 0.87278-0.16947 1.3939 0 0.54231 0.07203 0.76263 0.07626 0.22032 0.11016 0.2881 0.0339 0.06779 0.20337 0.14405 0.16947 0.0805 0.16947 0.22455 0 0.21608-0.22031 0.36013-0.21608 0.14405-0.45334 0.14405-0.79652 0-0.71602-1.5973zm-0.25421-2.3514q-0.42792 0-1.1143 0.94905-0.68213 0.94481-0.68213 1.6058 0 0.34742 0.14405 0.34742 0.49994 0 1.2287-0.8855 0.73297-0.88973 0.73297-1.5549 0-0.21184-0.09745-0.33471-0.09321-0.1271-0.21184-0.1271z"/>
      <path d="m19.111 26.099q-0.07203 0.29658-0.14405 0.89821l-0.20337 1.6651q-0.05084 0.40674-0.19913 0.5635-0.14405 0.15676-0.35589 0.15676-0.19066 0-0.36437-0.14405-0.16947-0.13982-0.16947-0.31352 0-0.34318 0.10592-0.79228 0.63129-2.5209 0.6906-5.2325v-0.08474q0-0.56773 0.02966-0.75415 0.0339-0.19066 0.18218-0.33471 0.15253-0.14405 0.42792-0.14405 0.46181 0 0.46181 0.70755 0 0.2881-0.10592 0.9787l-0.04237 0.29234q0.483-0.805 1.1482-1.3346 0.66518-0.53384 1.1905-0.53384 0.47452 0 0.805 0.33894 0.33471 0.33895 0.33471 0.8516 0 1.3685-1.0634 2.4912-1.0592 1.1185-2.0972 1.1185-0.49147 0-0.63129-0.39402zm2.487-3.4445q-0.51689 0-1.3431 1.0084-0.82194 1.0084-0.82194 1.5846 0 0.14829 0.14405 0.26692 0.14829 0.1144 0.34318 0.1144 0.53808 0 1.2329-0.84313 0.69908-0.84736 0.69908-1.6354 0-0.26268-0.0805-0.37708-0.0805-0.11863-0.17371-0.11863z"/>
      <path d="m24.78 24.299 0.07203-0.13558q0.51266-1.0295 1.1016-1.6693 0.59315-0.644 1.1567-0.644 0.43216 0 0.70331 0.23726 0.27539 0.23726 0.27539 0.5635 0 0.20337-0.09321 0.35166-0.09321 0.14405-0.25845 0.14405-0.26268 0-0.47876-0.21608-0.15253-0.13982-0.2415-0.13982-0.31776 0-1.0634 0.98718-0.74568 0.98718-0.89821 2.2201-0.0466 0.35589-0.2076 0.49571-0.161 0.14405-0.43639 0.14405-0.29234 0-0.41521-0.33047-0.12287-0.33471-0.12287-1.0889 0-0.30929 0.01695-0.83465 0.01695-0.49571 0.09745-1.2117 0.02118-0.18642 0.02966-0.29234 0.03813-0.41521 0.08474-0.56773 0.05084-0.15676 0.22879-0.29234 0.17795-0.13558 0.39402-0.13558 0.22879 0 0.34742 0.13134 0.11863 0.13134 0.11863 0.2881 0 0.19913-0.19066 0.82618-0.06779 0.21608-0.11439 0.51689z"/>
      <path d="m32.131 24.252q-0.28387 0.99142-1.0804 1.6735-0.79228 0.67789-1.5846 0.67789-0.62705 0-1.0338-0.45758-0.40673-0.46181-0.40673-1.1312 0-1.0931 0.74568-2.1523 0.74568-1.0592 1.8091-1.0592 0.7245 0 1.1736 0.53808 0.4491 0.53384 0.4491 1.2753 0 0.322-0.07203 0.63129zm-2.2031-1.3388q-0.29658 0.26268-0.58044 0.83889t-0.28387 1.1567q0 0.35166 0.1271 0.58044 0.13134 0.22879 0.34318 0.22879 0.52536 0 1.0931-0.62281 0.56773-0.62281 0.56773-1.3982 0-0.43639-0.18642-0.71602-0.18218-0.28387-0.51266-0.28387-0.31352 0-0.5635 0.21608z"/>
      <path d="m34.326 20.723q-0.22879 0-0.37284-0.22032-0.13982-0.22455-0.13982-0.47452 0-0.20337 0.2415-0.41097 0.24574-0.21184 0.54231-0.21184 0.161 0 0.3686 0.13558 0.2076 0.13134 0.2076 0.25421 0 0.14405-0.10592 0.48723-0.10592 0.34318-0.2881 0.39402-0.17795 0.0466-0.45334 0.0466zm-1.7371 8.2576q-0.53808 0-1.0465-0.4491-0.50842-0.44487-0.50842-0.7711 0-0.12287 0.12287-0.24574 0.11863-0.11863 0.18218-0.11863 0.08897 0 0.33047 0.19489 0.47876 0.4491 0.82618 0.4491 0.36013 0 0.5635-0.56773 0.20337-0.56773 0.36437-3.6691 0.03813-0.76263 0.08474-1.2033 0.05084-0.44063 0.22879-0.62281 0.17795-0.18642 0.50842-0.18642 0.19913 0 0.34318 0.13982 0.14829 0.13558 0.14829 0.322 0 0.05932-0.02966 0.17371-0.16524 0.65247-0.27116 1.7879-0.10168 1.1355-0.11016 1.4278-0.05084 1.2244-0.22032 1.8981-0.16524 0.67789-0.58468 1.0592-0.41521 0.38131-0.9321 0.38131z"/>
      <path d="m39.596 24.943q0 0.44063-0.74144 1.055-0.74144 0.6101-1.6735 0.6101-0.71602 0-1.127-0.4491-0.41097-0.45334-0.41097-1.2583 0-1.1863 0.83889-2.2243 0.83889-1.038 1.7922-1.038 0.47452 0 0.76263 0.30081 0.2881 0.30081 0.2881 0.71602 0 0.73721-0.70755 1.4066-0.70755 0.66518-1.8134 0.91939-0.1271 0.02966-0.1271 0.15253 0 0.20337 0.17795 0.38979 0.18218 0.18218 0.483 0.18218 0.8516 0 1.6905-0.87702 0.161-0.16947 0.31352-0.16947 0.25421 0 0.25421 0.28387zm-2.8429-0.74992q0.66942-0.13558 1.1778-0.57197 0.51266-0.43639 0.51266-0.79228 0-0.13982-0.0805-0.23302-0.07626-0.09745-0.19913-0.09745-0.3686 0-0.81771 0.54231-0.4491 0.54231-0.59315 1.1524z"/>
      <path d="m41.545 26.633q-0.69908 0-1.0634-0.38131-0.36437-0.38131-0.36437-1.0592 0-1.0677 0.86855-2.3091 0.86855-1.2414 1.7032-1.2414 0.4025 0 0.68636 0.4025 0.28387 0.39826 0.28387 0.83042 0 0.40673-0.15253 0.55079-0.14829 0.13982-0.2881 0.13982-0.41097 0-0.47876-0.56773-0.05084-0.41521-0.2076-0.41521-0.33047 0-0.87278 0.94057-0.54231 0.94057-0.54231 1.6481 0 0.57197 0.61858 0.57197 0.68213 0 1.377-0.483 0.32624-0.23302 0.51689-0.23302 0.23302 0 0.23302 0.23302 0 0.32624-0.74992 0.8516-0.74568 0.52113-1.5676 0.52113z"/>
      <path d="m46.413 22.96q-0.03813 0-0.2415 0.94481-0.19913 0.94481-0.19913 1.1439 0 0.34742 0.07203 0.48723 0.07626 0.13558 0.24574 0.13558 0.23726 0 0.45334-0.0805 0.22032-0.08474 0.57621-0.37284 0.22031-0.18218 0.37284-0.18218 0.12287 0 0.19489 0.07203 0.07626 0.06779 0.07626 0.161 0 0.37284-0.60163 0.84736-0.60163 0.47029-1.271 0.47029-0.55926 0-0.85584-0.33047-0.29234-0.33047-0.29234-0.94905 0-0.57197 0.42792-2.2836-0.27116 0.02966-0.37708 0.02966h-0.08897q-0.19489 0-0.39826-0.1271-0.19913-0.1271-0.19913-0.40674 0-0.35589 0.4025-0.35589l0.90668-0.0339q0.17795-0.51266 0.37708-1.3431 0.11863-0.51689 0.53808-0.51689 0.23302 0 0.36437 0.14405 0.13134 0.13982 0.13134 0.31352 0 0.06779-0.36013 1.3092 1.3473-0.11863 1.4786-0.11863 0.22455 0 0.29658 0.06779 0.07203 0.06355 0.07203 0.24997 0 0.37708-0.63976 0.47876z"/>
      <path d="m49.79 24.371q-0.42368 0-0.65671-0.17371-0.06779-0.82618 0.11863-1.699 0.2076-0.94481 0.2076-1.4151 0-0.0466 0.04237-0.35166 0.0466-0.30929 0.27116-0.47029 0.22455-0.161 0.38131-0.161 0.16947 0 0.322 0.1271 0.15676 0.12287 0.15676 0.27116 0 0.11863-0.17371 0.88126-0.16947 0.75839-0.33895 1.3982-0.17795 0.66518-0.18642 1.0634-0.0085 0.30081-0.14405 0.5296zm-0.60163 1.9489q-0.46605 0-0.46605-0.51689 0-0.19489 0.19066-0.4491t0.41097-0.25421q0.14405 0 0.36013 0.13982t0.21608 0.23726l-0.04237 0.26268q-0.03813 0.27963-0.27539 0.43216-0.23726 0.14829-0.39402 0.14829z"/>
    </g>
    <path d="m57.204 28.823c3.9741 1.6254 8.1663 2.5918 12.332 3.5762 2.5184 0.58162 5.0517 1.1028 7.5983 1.5459 0.5425 0.09439 1.1963 0.13777 1.7451 0.3227 0.05174-0.03532 0.55124 0.69636 0.4995 0.73168-0.10945 0.08049-0.19735 0.20548-0.32836 0.24148-0.5386 0.14799-2.0163 0.19462-2.4717 0.17733-2.6799-0.10178-5.3153-0.66814-7.9252-1.2387-4.1524-1.1272-8.4862-2.193-12.071-4.6835-0.04759-0.04392 0.57348-0.71697 0.62107-0.67306z"/>
    <path d="m76.094 29.604c0.06169 0.07214 0.11539 0.15196 0.18507 0.21642 0.06561 0.06069 0.15163 0.09629 0.21786 0.1563 0.51322 0.46509 0.90615 1.0467 1.2803 1.6226 0.57418 0.91278 0.92594 1.9335 1.3165 2.9319 0.47061 0.66945 0.29449 0.88374-0.32603 1.4058-1.0906 0.84446-2.3212 1.4651-3.5256 2.1251-0.51425 0.31912-1.1197 0.40929-1.6696 0.63308-0.04674 0.03999-0.61228-0.62106-0.56554-0.66104 0.48174-0.33842 1.0866-0.43613 1.5883-0.75136 1.156-0.70855 2.335-1.3767 3.5216-2.032 0.21383-0.11529 0.43856-0.33567 0.4785 0.05998 0.0028 0.0273-0.03545-0.0419-0.05366-0.06243-0.21267-0.23965-0.07856-0.07167-0.31088-0.3958-0.47497-0.92075-0.83795-1.8932-1.3506-2.7951-0.24064-0.39558-0.29285-0.5047-0.56477-0.86561-0.24434-0.32432-0.53378-0.60355-0.79006-0.91594-0.03878-0.04727-0.06428-0.10404-0.09642-0.15606-0.03648-0.04702 0.62854-0.56286 0.66502-0.51584z"/>
  </g>
</svg>
