<svg width="24" height="24" version="1.1" viewBox="0 0 6.35 6.35" xmlns="http://www.w3.org/2000/svg">
  <g transform="translate(-3.175 -287.48)" stroke="#000">
    <path transform="matrix(.26458 0 0 .26458 0 284.3)" d="m24 12a12 12 0 0 0-12 12 12 12 0 0 0 12 12 12 12 0 0 0 12-12 12 12 0 0 0-12-12zm-2.0977 5.0039c0.03197-0.0015 0.06373-0.0015 0.0957 0h4c0.55245-0.0021 1.0039 0.44364 1.0059 0.99609v6.002h2c0.88576 7e-3 1.3257 1.0769 0.70117 1.7051l-4.998 4.998c-0.3909 0.39254-1.0271 0.39254-1.418 0l-4.9961-4.998c-0.62698-0.63069-0.18032-1.7045 0.70898-1.7051h2v-6.002c-7.23e-4 -0.51436 0.3886-0.94507 0.90039-0.99609z" fill="#fff" stroke="none"/>
  </g>
</svg>
