<?xml version="1.0" encoding="UTF-8" standalone="no"?>
<!DOCTYPE svg PUBLIC "-//W3C//DTD SVG 1.1//EN" "http://www.w3.org/Graphics/SVG/1.1/DTD/svg11.dtd">
<svg width="100%" height="100%" viewBox="0 0 32 32" version="1.1" xmlns="http://www.w3.org/2000/svg" xmlns:xlink="http://www.w3.org/1999/xlink" xml:space="preserve" xmlns:serif="http://www.serif.com/" style="fill-rule:evenodd;clip-rule:evenodd;stroke-linecap:round;stroke-linejoin:round;stroke-miterlimit:1.5;">
    <path d="M14.58,7.904L15.453,8.687L14.559,13.018C12.279,12.684 9.739,11.682 9.739,11.682L9.719,11.582L10.632,7.364L14.58,7.904Z" style="fill:rgb(24,200,123);"/>
    <path d="M13.801,16.694L8.762,16L9.719,11.582L9.739,11.682C9.739,11.682 12.279,12.684 14.559,13.018L13.801,16.694Z" style="fill:rgb(11,152,86);"/>
    <path d="M15.453,8.023L20.394,8.7L19.4,12.638C19.306,12.652 19.21,12.668 19.114,12.685C15.658,13.316 15.967,13.223 14.572,13.02L14.559,13.018L15.453,8.687L15.453,8.023Z" style="fill:rgb(11,152,86);"/>
    <path d="M18.3,17.003L18.37,17.322L13.801,16.694L14.559,13.018L14.572,13.02C15.967,13.223 15.658,13.316 19.114,12.685C19.21,12.668 19.306,12.652 19.4,12.638L18.3,17.003Z" style="fill:rgb(24,200,123);"/>
    <path d="M19.4,12.638C21.542,12.328 23.346,12.966 24.363,13.492L23.342,18.007L18.37,17.322L18.3,17.003L19.4,12.638Z" style="fill:rgb(11,152,86);"/>
    <path d="M20.394,8.7L25.295,9.371L24.363,13.492C23.346,12.966 21.542,12.328 19.4,12.638L20.394,8.7Z" style="fill:rgb(24,200,123);"/>
    <g transform="matrix(0.637439,0,0,0.668964,4.3409,4.01882)">
        <path d="M32.873,8C32.873,8 29.528,6.291 26.946,6.291C23.946,6.291 21.782,7.582 17.582,7C14,6.504 10,5 10,5" style="fill:rgb(27,195,118);stroke:rgb(11,152,86);stroke-width:3.06px;"/>
    </g>
    <g transform="matrix(0.637439,0,0,0.668964,2.3875,12.6552)">
        <path d="M32.873,8C32.873,8 29.528,6.291 26.946,6.291C23.946,6.291 21.782,7.582 17.582,7C14,6.504 10,5 10,5" style="fill:rgb(27,195,118);stroke:rgb(11,152,86);stroke-width:3.06px;"/>
    </g>
    <g transform="matrix(0.822938,0,0,0.863636,2.58986,2.18182)">
        <path d="M5,27L10,5" style="fill:none;stroke:rgb(11,152,86);stroke-width:2.37px;"/>
    </g>
    <path d="M23.342,18.007L25.295,9.371" style="fill:none;stroke:rgb(11,152,86);stroke-width:2px;"/>
</svg>
