<?xml version="1.0" encoding="UTF-8" standalone="no"?>
<!DOCTYPE svg PUBLIC "-//W3C//DTD SVG 1.1//EN" "http://www.w3.org/Graphics/SVG/1.1/DTD/svg11.dtd">
<svg width="100%" height="100%" viewBox="0 0 94 84" version="1.1" xmlns="http://www.w3.org/2000/svg" xmlns:xlink="http://www.w3.org/1999/xlink" xml:space="preserve" xmlns:serif="http://www.serif.com/" style="fill-rule:evenodd;clip-rule:evenodd;stroke-linecap:round;stroke-linejoin:round;stroke-miterlimit:1.5;">
    <g transform="matrix(1,0,0,1,-487.284,-28.4741)">
        <path d="M552.844,39.536C565.245,29.353 574.989,27.378 578.667,31.465C582.344,35.552 579.958,45.699 568.1,59.766C568.978,62.82 569.443,66.045 569.443,69.376C569.443,83.233 561.405,95.226 549.74,100.941C546.963,106.664 541.091,110.603 534.305,110.603C527.52,110.603 521.648,106.664 518.87,100.941C507.205,95.226 499.168,83.233 499.168,69.376C499.168,66.052 499.63,62.835 500.504,59.791C488.897,46.274 486.225,36.021 489.699,31.735C493.176,27.444 502.81,29.132 515.806,39.511C521.177,36.167 527.518,34.238 534.305,34.238C541.108,34.238 547.463,36.176 552.844,39.536Z" style="fill:rgb(250,165,29);"/>
        <g>
            <g transform="matrix(1.10187,0,0,1.10187,-53.3587,-27.0678)">
                <path d="M517.027,106.952C517.894,94.291 548.744,94.31 549.605,106.952C550.276,116.786 542.376,125.416 533.316,125.416C524.256,125.416 516.366,116.597 517.027,106.952Z" style="fill:white;"/>
            </g>
            <g transform="matrix(1,0,0,1,157.286,-9.09426)">
                <g transform="matrix(1,0,0,1,-157.286,0)">
                    <path d="M542.286,96L543.786,94" style="fill:none;stroke:black;stroke-width:1px;"/>
                </g>
                <g transform="matrix(1,0,0,1,-157.286,0)">
                    <path d="M526.286,96L524.786,94" style="fill:none;stroke:black;stroke-width:1px;"/>
                </g>
                <g transform="matrix(1,0,0,1,173.964,0)">
                    <path d="M195.036,96L198.036,94.507L203.036,96L208.036,94.5L211.036,96L207.036,98.5L205.536,101.5L203.036,104L200.536,101.5L199.036,98.5L195.036,96Z" style="fill:rgb(94,74,66);stroke:black;stroke-width:1px;"/>
                </g>
                <g transform="matrix(1,0,0,1,173.964,0)">
                    <path d="M203.036,108L203.036,104" style="fill:none;stroke:black;stroke-width:1px;"/>
                </g>
                <path d="M377.5,108C377.503,108.983 379.005,110.99 383,112C379.017,110.994 374.991,110.986 371,112C374.996,110.985 376.483,108.982 376.5,108L377.5,108Z"/>
            </g>
        </g>
        <path d="M552.844,39.536C565.245,29.353 574.989,27.378 578.667,31.465C582.344,35.552 579.958,45.699 568.1,59.766C568.978,62.82 569.443,66.045 569.443,69.376C569.443,83.233 561.405,95.226 549.74,100.941C546.963,106.664 541.091,110.603 534.305,110.603C527.52,110.603 521.648,106.664 518.87,100.941C507.205,95.226 499.168,83.233 499.168,69.376C499.168,66.052 499.63,62.835 500.504,59.791C488.897,46.274 486.225,36.021 489.699,31.735C493.176,27.444 502.81,29.132 515.806,39.511C521.177,36.167 527.518,34.238 534.305,34.238C541.108,34.238 547.463,36.176 552.844,39.536Z" style="fill:none;stroke:black;stroke-width:2px;"/>
        <g transform="matrix(0.985929,0.167163,-0.167163,0.985929,15.1676,-91.0151)">
            <ellipse cx="525.609" cy="61.209" rx="1.42" ry="2.346"/>
        </g>
        <g transform="matrix(1,0,0,1,-3.59754,-4.21967)">
            <ellipse cx="540.867" cy="64.854" rx="1.398" ry="2.27"/>
        </g>
        <g transform="matrix(0.87188,-0.48972,0.48972,0.87188,35.5442,270.257)">
            <ellipse cx="549.865" cy="58.92" rx="1.828" ry="2.115"/>
        </g>
        <g transform="matrix(0.986907,-0.161288,0.161288,0.986907,-15.4867,90.2927)">
            <ellipse cx="559.431" cy="59.675" rx="1.805" ry="2.597"/>
        </g>
        <g transform="matrix(0.959602,-0.28136,0.28136,0.959602,31.9262,136.546)">
            <ellipse cx="526.949" cy="70.487" rx="1.572" ry="2.525"/>
        </g>
        <g transform="matrix(0.969518,0.245021,-0.245021,0.969518,69.6068,-118.662)">
            <ellipse cx="526.949" cy="70.487" rx="1.572" ry="2.525"/>
        </g>
        <g transform="matrix(1,0,0,1,-1.48721,-4.91306)">
            <ellipse cx="531.78" cy="63.392" rx="1.521" ry="2.471"/>
        </g>
        <g transform="matrix(1,0,0,1,-9.38596,-9.84568)">
            <ellipse cx="562.322" cy="68.14" rx="1.665" ry="1.773"/>
        </g>
        <g transform="matrix(1,0,0,1,-2.55315,-5.63462)">
            <ellipse cx="564.872" cy="60.772" rx="1.509" ry="1.463"/>
        </g>
        <g transform="matrix(1,0,0,1,-6.11939,23.2349)">
            <ellipse cx="564.872" cy="60.772" rx="1.509" ry="1.463"/>
        </g>
        <g transform="matrix(0.826264,0.563283,-0.563283,0.826264,124.262,-279.198)">
            <ellipse cx="507.141" cy="61.66" rx="1.641" ry="1.791"/>
        </g>
        <g transform="matrix(0.885727,-0.464206,0.464206,0.885727,60.8031,240.016)">
            <ellipse cx="518.514" cy="61.76" rx="1.268" ry="2.279"/>
        </g>
        <g transform="matrix(0.959553,0.281527,-0.281527,0.959553,78.5358,-130.544)">
            <ellipse cx="518.514" cy="61.76" rx="1.268" ry="2.279"/>
        </g>
        <g transform="matrix(0.959553,0.281527,-0.281527,0.959553,83.9109,-118.958)">
            <ellipse cx="518.514" cy="61.76" rx="1.268" ry="2.279"/>
        </g>
        <g transform="matrix(0.621538,0.783384,-0.783384,0.621538,259.598,-386.684)">
            <ellipse cx="506.47" cy="70.587" rx="1.649" ry="2.758"/>
        </g>
        <g transform="matrix(0.85277,0.522287,-0.522287,0.85277,120.475,-272.158)">
            <ellipse cx="512.909" cy="74.482" rx="1.11" ry="1.864"/>
        </g>
        <g transform="matrix(0.92223,0.386642,-0.386642,0.92223,59.2945,-210.202)">
            <path d="M530.119,42.8C530.437,43.444 530.597,44.25 530.597,45.119C530.597,47.379 529.518,49.213 528.188,49.213C526.917,49.213 525.875,47.539 525.814,45.418L530.119,42.8Z"/>
        </g>
        <g transform="matrix(0.976225,-0.21676,0.21676,0.976225,1.6056,106.557)">
            <ellipse cx="539.259" cy="49.964" rx="2.299" ry="4.537"/>
        </g>
        <g transform="matrix(0.939377,0.342887,-0.342887,0.939377,61.9815,-182.286)">
            <ellipse cx="515.448" cy="53.433" rx="2.524" ry="3.558"/>
        </g>
        <g transform="matrix(0.706485,-0.335276,0.345461,0.727945,140.86,183.267)">
            <ellipse cx="533.277" cy="58.721" rx="2.542" ry="4.178"/>
        </g>
        <g transform="matrix(0.575973,0.451431,-0.437801,0.558582,224.856,-230.521)">
            <ellipse cx="549.756" cy="51.593" rx="3.118" ry="5.319"/>
        </g>
        <g transform="matrix(0.926145,0.377167,-0.377167,0.926145,63.8578,-197.39)">
            <ellipse cx="524.066" cy="56.458" rx="1.875" ry="3.121"/>
        </g>
        <g transform="matrix(1,0,0,1,7.00582,-21.2293)">
            <path d="M541.876,58.305L545.307,60.062C545.248,61.18 544.358,62.059 543.275,62.059C542.134,62.059 541.209,61.085 541.209,59.886C541.209,59.258 541.462,58.692 541.876,58.305Z"/>
        </g>
        <g transform="matrix(0.779913,-0.188278,0.204295,0.846263,105.435,94.7342)">
            <ellipse cx="531.356" cy="70.345" rx="2.083" ry="3.596"/>
        </g>
        <g transform="matrix(0.986006,-0.166709,0.166709,0.986006,-4.14533,79.1333)">
            <ellipse cx="540.262" cy="67.417" rx="2.01" ry="2.713"/>
        </g>
        <g transform="matrix(0.871498,0.490399,-0.490399,0.871498,50.9991,-273.769)">
            <ellipse cx="558.591" cy="58.048" rx="2.103" ry="4.226"/>
        </g>
        <g transform="matrix(0.957313,0.289052,-0.289052,0.957313,39.3143,-153.188)">
            <ellipse cx="519.509" cy="45.087" rx="1.485" ry="2.852"/>
        </g>
        <g transform="matrix(0.816837,0.576869,-0.576869,0.816837,138.403,-304.145)">
            <ellipse cx="508.962" cy="60.753" rx="1.811" ry="2.351"/>
        </g>
        <g transform="matrix(1,0,0,1,2.67174,-11.0906)">
            <ellipse cx="520.988" cy="61.048" rx="1.519" ry="1.579"/>
        </g>
        <g transform="matrix(1,0,0,1,-2.32644,-2.41758)">
            <ellipse cx="535.9" cy="41.744" rx="1.331" ry="3.022"/>
        </g>
        <g transform="matrix(1,0,0,1,-0.618151,-4.0967)">
            <ellipse cx="545.332" cy="42.915" rx="1.838" ry="1.775"/>
        </g>
        <g transform="matrix(0.763597,-0.483035,0.484386,0.765732,109.298,248.941)">
            <ellipse cx="526.398" cy="67.514" rx="1.953" ry="3.791"/>
        </g>
        <g transform="matrix(0.931881,0.362765,-0.362765,0.931881,67.2531,-195.202)">
            <ellipse cx="506.015" cy="68.486" rx="1.598" ry="2.149"/>
        </g>
        <g transform="matrix(0.642667,0.766146,-0.766146,0.642667,226.734,-379.779)">
            <ellipse cx="510.063" cy="51.825" rx="1.441" ry="2.431"/>
        </g>
        <g transform="matrix(0.994568,0.104088,-0.104088,0.994568,11.0377,-60.9939)">
            <ellipse cx="530.178" cy="53.272" rx="1.356" ry="2.144"/>
        </g>
        <g transform="matrix(0.7474,-0.664374,0.664374,0.7474,96.9628,363.28)">
            <ellipse cx="549.759" cy="61.338" rx="1.761" ry="2.798"/>
        </g>
        <g transform="matrix(0.85419,-0.519961,0.519961,0.85419,53.7896,292.302)">
            <ellipse cx="556.313" cy="48.215" rx="1.517" ry="2.605"/>
        </g>
        <g transform="matrix(0.771956,-0.451034,0.422212,0.722626,88.0376,256.806)">
            <ellipse cx="564.648" cy="66.801" rx="2.117" ry="3.188"/>
        </g>
        <g transform="matrix(0.915396,-0.402554,0.402554,0.915396,18.3368,209.519)">
            <ellipse cx="558.506" cy="71.385" rx="1.719" ry="2.722"/>
        </g>
        <g transform="matrix(0.653991,0.756502,-0.756502,0.653991,233.452,-371.423)">
            <ellipse cx="508.308" cy="69.397" rx="1.704" ry="3.245"/>
        </g>
        <g transform="matrix(0.981873,0.189539,-0.189539,0.981873,19.8206,-106.831)">
            <ellipse cx="528.46" cy="70.614" rx="1.264" ry="2.517"/>
        </g>
        <g transform="matrix(0.966331,0.2573,-0.2573,0.966331,5.46622,-141.685)">
            <ellipse cx="537.583" cy="70.092" rx="2.037" ry="2.424"/>
        </g>
        <g transform="matrix(0.966915,0.255101,-0.255101,0.966915,12.1745,-133.498)">
            <ellipse cx="533.893" cy="78.546" rx="1.474" ry="2.732"/>
        </g>
        <g transform="matrix(0.998273,-0.0587468,0.0587468,0.998273,21.9957,19.0955)">
            <ellipse cx="542.073" cy="78.182" rx="1.615" ry="2.438"/>
        </g>
        <g transform="matrix(0.989505,-0.144496,0.144496,0.989505,-5.40118,75.6284)">
            <ellipse cx="543.417" cy="66.334" rx="1.544" ry="2.506"/>
        </g>
        <g transform="matrix(0.988179,0.153302,-0.153302,0.988179,5.63165,-91.7707)">
            <ellipse cx="514.098" cy="78.746" rx="1.656" ry="2.693"/>
        </g>
        <g transform="matrix(0.956834,0.290635,-0.290635,0.956834,42.8863,-164.762)">
            <ellipse cx="506.299" cy="79.568" rx="1.471" ry="2.673"/>
        </g>
        <g transform="matrix(1,0,0,1,-13.6777,11.8535)">
            <ellipse cx="519.206" cy="74.576" rx="1.328" ry="1.614"/>
        </g>
        <g transform="matrix(1,0,0,1,0.733458,0.336528)">
            <ellipse cx="531.47" cy="64.469" rx="1.651" ry="1.605"/>
        </g>
        <g transform="matrix(1,0,0,1,36.5073,9.8849)">
            <ellipse cx="531.47" cy="64.469" rx="1.651" ry="1.605"/>
        </g>
        <g transform="matrix(0.975047,-0.221998,0.221998,0.975047,1.47321,121.675)">
            <ellipse cx="562.719" cy="65.053" rx="1.369" ry="2.25"/>
        </g>
        <g transform="matrix(0.976452,-0.215736,0.215736,0.976452,-0.928061,108.241)">
            <ellipse cx="558.147" cy="76.264" rx="1.547" ry="2.845"/>
        </g>
        <g transform="matrix(0.995657,-0.0930978,0.0930978,0.995657,-30.8041,45.9928)">
            <ellipse cx="527.854" cy="83.373" rx="1.426" ry="2.661"/>
        </g>
        <g transform="matrix(0.993091,-0.117344,0.117344,0.993091,-18.3454,44.5213)">
            <ellipse cx="511.67" cy="88.392" rx="1.3" ry="1.947"/>
        </g>
        <g transform="matrix(0.998573,0.0533953,-0.0533953,0.998573,-7.88145,-45.6381)">
            <ellipse cx="518.614" cy="90.079" rx="1.391" ry="2.199"/>
        </g>
        <g transform="matrix(0.997058,0.0766469,-0.0766469,0.997058,30.8003,-58.5944)">
            <ellipse cx="540.892" cy="85.648" rx="1.503" ry="2.313"/>
        </g>
        <g transform="matrix(1,0,0,1,156.682,-2.23002)">
            <g transform="matrix(-1,0,0,1,755.061,0)">
                <g transform="matrix(1,0,0,1,173.964,0)">
                    <path d="M180.274,65.399C180.81,64.813 182.484,64.425 184.435,64.462C183.863,65.076 183.539,65.811 183.539,66.599C183.539,68.855 186.196,70.687 189.468,70.687C190.644,70.687 191.74,70.451 192.658,70.035C193.327,75.034 192.108,78.503 189.643,82.356" style="fill:none;stroke:black;stroke-width:1px;"/>
                </g>
                <g transform="matrix(1,0,0,1,174.487,-0.14871)">
                    <path d="M183.913,64.611C187.264,64.654 191.435,65.937 192.071,69.567L192.135,70.184C191.217,70.6 190.121,70.836 188.946,70.836C185.674,70.836 183.017,69.004 183.017,66.747C183.017,65.96 183.34,65.224 183.913,64.611Z" style="fill:white;stroke:black;stroke-width:1px;"/>
                </g>
                <g transform="matrix(1,0,0,1,-157.39,1.36455)">
                    <circle cx="520.554" cy="65.653" r="1.778"/>
                </g>
            </g>
            <g>
                <g transform="matrix(1,0,0,1,173.964,0)">
                    <path d="M180.274,65.399C180.81,64.813 182.484,64.425 184.435,64.462C183.863,65.076 183.539,65.811 183.539,66.599C183.539,68.855 186.196,70.687 189.468,70.687C190.644,70.687 191.74,70.451 192.658,70.035C193.327,75.034 192.108,78.503 189.643,82.356" style="fill:none;stroke:black;stroke-width:1px;"/>
                </g>
                <g transform="matrix(1,0,0,1,174.487,-0.14871)">
                    <path d="M183.913,64.611C187.264,64.654 191.435,65.937 192.071,69.567L192.135,70.184C191.217,70.6 190.121,70.836 188.946,70.836C185.674,70.836 183.017,69.004 183.017,66.747C183.017,65.96 183.34,65.224 183.913,64.611Z" style="fill:white;stroke:black;stroke-width:1px;"/>
                </g>
                <g transform="matrix(1,0,0,1,-157.39,1.36455)">
                    <circle cx="520.554" cy="65.653" r="1.778"/>
                </g>
            </g>
        </g>
        <g>
            <g>
                <g transform="matrix(1,0,0,1,-0.887096,1.19244)">
                    <path d="M521.849,96.41C511.875,97.044 503.587,96.967 493.619,101.65" style="fill:none;stroke:white;stroke-width:1px;"/>
                </g>
                <g transform="matrix(1,0,0,1,-0.902124,1.92104)">
                    <path d="M521.396,92.11C510.189,92.248 501.139,92.857 492.758,95.024" style="fill:none;stroke:white;stroke-width:1px;"/>
                </g>
                <g transform="matrix(1,0,0,1,-0.507766,2.33999)">
                    <path d="M521.244,88.396C510.698,88.699 500.277,88.924 492.328,87.616" style="fill:none;stroke:white;stroke-width:1px;"/>
                </g>
                <g transform="matrix(1,0,0,1,-0.507766,2.33999)">
                    <path d="M521.149,85.035C511.059,84.873 501.023,84.609 492.577,81.31" style="fill:none;stroke:white;stroke-width:1px;"/>
                </g>
            </g>
            <g transform="matrix(-1,0,0,1,1068.92,0)">
                <g transform="matrix(1,0,0,1,-0.887096,1.19244)">
                    <path d="M521.849,96.41C511.875,97.044 503.587,96.967 493.619,101.65" style="fill:none;stroke:white;stroke-width:1px;"/>
                </g>
                <g transform="matrix(1,0,0,1,-0.902124,1.92104)">
                    <path d="M521.396,92.11C510.189,92.248 501.139,92.857 492.758,95.024" style="fill:none;stroke:white;stroke-width:1px;"/>
                </g>
                <g transform="matrix(1,0,0,1,-0.507766,2.33999)">
                    <path d="M521.244,88.396C510.698,88.699 500.277,88.924 492.328,87.616" style="fill:none;stroke:white;stroke-width:1px;"/>
                </g>
                <g transform="matrix(1,0,0,1,-0.507766,2.33999)">
                    <path d="M521.149,85.035C511.059,84.873 501.023,84.609 492.577,81.31" style="fill:none;stroke:white;stroke-width:1px;"/>
                </g>
            </g>
        </g>
        <g>
            <path d="M502.037,55.884C484.185,32.544 492.446,26.674 512.979,41.774C507.715,46.14 504.259,50.831 502.037,55.884Z" style="fill:white;"/>
            <g transform="matrix(-1,0,0,1,1068.62,0)">
                <path d="M502.037,55.884C484.185,32.544 492.446,26.674 512.979,41.774C507.715,46.14 504.259,50.831 502.037,55.884Z" style="fill:white;"/>
            </g>
        </g>
    </g>
</svg>
